<svg width="100" height="22" viewBox="0 0 100 22" fill="none" xmlns="http://www.w3.org/2000/svg">
<path fill-rule="evenodd" clip-rule="evenodd" d="M69.384 8.33878C69.7521 8.34104 70.1198 8.36545 70.4847 8.41187C70.8566 8.45747 71.218 8.56209 71.5539 8.72141C71.875 8.87306 72.1526 9.09737 72.3626 9.37489C72.592 9.7049 72.7038 10.0969 72.6816 10.4927V11.0086L70.7632 11.0258V10.5572C70.7594 10.3453 70.6511 10.1477 70.4712 10.0241C70.1778 9.85645 69.8368 9.78126 69.4963 9.80911C69.2798 9.80228 69.0634 9.82545 68.8539 9.8779C68.7234 9.91206 68.6013 9.9705 68.4945 10.0499C68.4167 10.1057 68.36 10.1841 68.3327 10.2734C68.3098 10.3533 68.2977 10.4357 68.2968 10.5185C68.3092 10.7147 68.444 10.8844 68.6382 10.9484C68.9148 11.0599 69.2022 11.1448 69.4963 11.2021C69.8378 11.2794 70.2106 11.3525 70.615 11.4299C71.0035 11.5032 71.3809 11.6231 71.7381 11.7868C72.0693 11.9343 72.3612 12.1518 72.5917 12.423C72.8339 12.7304 72.9563 13.109 72.9377 13.4936C72.9605 13.947 72.84 14.3965 72.5917 14.7833C72.3806 15.0986 72.0922 15.3599 71.7516 15.5443C71.4176 15.7184 71.0566 15.8404 70.6824 15.9054C70.3547 15.9628 70.0226 15.9944 69.6895 16C69.2909 15.9985 68.8929 15.9683 68.499 15.9097C68.111 15.8547 67.732 15.7521 67.3713 15.6045C67.047 15.4677 66.7597 15.2618 66.5312 15.0026C66.3026 14.7338 66.1844 14.3944 66.1988 14.0482V13.356H68.2519V13.9966C68.2519 14.1857 68.3956 14.3233 68.6742 14.405C69.0181 14.4945 69.3736 14.5365 69.7299 14.5297C69.9402 14.5343 70.1497 14.5053 70.3499 14.4437C70.4857 14.404 70.6123 14.3398 70.7228 14.2545C70.8041 14.1908 70.8687 14.1099 70.9115 14.0181C70.9447 13.9416 70.963 13.86 70.9654 13.7773C70.962 13.5734 70.8282 13.3925 70.6285 13.3216C70.3546 13.204 70.0685 13.1146 69.7749 13.055L68.7011 12.8444C68.318 12.7765 67.9462 12.6594 67.596 12.4961C67.2576 12.3499 66.9616 12.1271 66.7334 11.8469C66.4901 11.5354 66.3692 11.1518 66.3919 10.7635C66.3941 10.4832 66.4411 10.2048 66.5312 9.93809C66.6302 9.64604 66.796 9.37875 67.0164 9.15563C67.2805 8.90096 67.5973 8.70182 67.9464 8.57094C68.4048 8.40323 68.8935 8.32432 69.384 8.33878ZM53.9339 8.35598C54.3245 8.35909 54.7129 8.41259 55.0885 8.51505C55.5094 8.62404 55.8963 8.8291 56.2162 9.11264C56.5948 9.45249 56.8881 9.8699 57.0743 10.3336C57.3255 10.9777 57.4415 11.6629 57.4157 12.35V12.7068H52.3391C52.3479 12.8773 52.3704 13.0469 52.4065 13.2141C52.4433 13.4212 52.521 13.6196 52.6356 13.7988C52.7612 13.9992 52.9373 14.1662 53.1477 14.2846C53.4326 14.4271 53.7522 14.494 54.0732 14.4781C54.3439 14.4781 54.61 14.4115 54.8459 14.2846C55.0877 14.1599 55.2625 13.9426 55.3266 13.687L57.3348 13.6698C57.2253 14.0669 57.0377 14.4404 56.7823 14.7704C56.5613 15.0512 56.2906 15.2927 55.9826 15.4841C55.6957 15.6647 55.3779 15.7956 55.0436 15.871C54.7264 15.9483 54.4006 15.9887 54.0732 15.9914C53.5815 15.9964 53.0919 15.9283 52.6221 15.7893C52.1801 15.6669 51.7771 15.4408 51.4495 15.1316C51.0967 14.7831 50.831 14.3628 50.6723 13.902C50.4638 13.2963 50.3665 12.6607 50.3848 12.0232C50.3848 11.877 50.3848 11.6879 50.4207 11.4514C50.4477 11.1918 50.5019 10.9354 50.5825 10.6862C50.6693 10.3989 50.7899 10.122 50.9419 9.8607C51.1057 9.57781 51.3201 9.32461 51.5753 9.11264C51.8635 8.87628 52.1937 8.69135 52.5502 8.56664C52.9941 8.41611 53.4631 8.34471 53.9339 8.35598ZM84.5151 8.35594C84.7103 8.35875 84.9046 8.38182 85.0946 8.42476C85.2975 8.46701 85.4948 8.53045 85.6832 8.61393C85.8662 8.69527 86.0407 8.79316 86.2043 8.90628C86.3528 9.00877 86.4858 9.13028 86.5997 9.26741V8.61393H88.3967L88.3877 13.8074C88.3913 13.8968 88.4279 13.9821 88.4911 14.0482C88.5482 14.1168 88.6331 14.159 88.7247 14.1642H89.2234V15.7979H87.5701C87.4629 15.7958 87.3573 15.7724 87.2601 15.7291C87.1411 15.6855 87.0315 15.6214 86.9366 15.54C86.839 15.4564 86.757 15.3575 86.694 15.2476C86.6273 15.1319 86.5932 15.0015 86.5952 14.8693V14.6801C86.3781 15.0815 86.0462 15.4155 85.6383 15.6432C85.2287 15.8705 84.7639 15.9906 84.2905 15.9914C83.8173 15.9949 83.3472 15.9178 82.9023 15.7635C82.4769 15.617 82.0926 15.3787 81.7791 15.0671C81.4426 14.7262 81.1867 14.3201 81.0288 13.8762C80.8335 13.3227 80.7423 12.7405 80.7593 12.1565C80.7414 11.5688 80.8484 10.9837 81.0738 10.4368C81.26 9.98841 81.545 9.58369 81.9094 9.25022C82.2476 8.95577 82.6451 8.73048 83.0775 8.58813C83.5393 8.43258 84.0255 8.35405 84.5151 8.35594ZM97.328 6.0129L97.3595 8.54514H98.5725V9.908H97.3595V13.2098C97.3532 13.2885 97.3532 13.3676 97.3595 13.4463C97.3647 13.5344 97.3958 13.6194 97.4493 13.6913C97.5073 13.7793 97.5919 13.8483 97.6919 13.8891C97.8048 13.9373 97.9258 13.9649 98.0487 13.9706L98.5051 13.9708V15.8796H98.3478C98.288 15.8844 98.2279 15.8844 98.1681 15.8796H97.2516C96.729 15.895 96.2295 15.6735 95.9039 15.282C95.5198 14.7774 95.3337 14.1594 95.3782 13.5365V9.908H94.3809V8.54514H95.3782V6.0129H97.328ZM74.5864 6C74.759 6.00071 74.9287 6.04205 75.0806 6.12038C75.2461 6.20263 75.3976 6.30845 75.5299 6.43422C75.6594 6.56039 75.7671 6.70552 75.8489 6.86414C75.9289 7.01328 75.9719 7.17804 75.9747 7.34566V11.288L77.3539 9.72313L77.6998 9.319C77.8152 9.18242 77.9414 9.05451 78.0772 8.93637C78.2141 8.82312 78.3649 8.72638 78.5265 8.64832C78.6734 8.57432 78.8366 8.53455 79.0027 8.53224H80.2292V10.1702H79.3621L78.194 11.3525L79.9057 14.1642H80.7548V15.7979H79.5283C79.3596 15.8017 79.1917 15.774 79.0341 15.7163C78.8717 15.6451 78.7204 15.5525 78.5849 15.4411C78.4427 15.3265 78.3133 15.1983 78.1985 15.0585C78.0879 14.922 77.9874 14.7783 77.8975 14.6285L76.7878 12.7068L75.9791 13.5236V14.5426C75.9757 14.6921 75.9373 14.839 75.8668 14.9725C75.7963 15.1289 75.7008 15.274 75.5838 15.4024C75.4707 15.5228 75.3389 15.6258 75.1929 15.7077C75.0556 15.781 74.901 15.8194 74.7437 15.8194H73.1937V14.1857H73.643C73.7408 14.1838 73.8335 14.1434 73.8991 14.0739C73.9721 14.0115 74.0144 13.9226 74.0159 13.8289V7.97764C74.0124 7.88809 73.97 7.80397 73.8991 7.74549C73.8376 7.678 73.7499 7.63759 73.6565 7.63371H73.1937V6H74.5864ZM47.6713 6.0129C47.8557 6.00987 48.038 6.05127 48.2014 6.13328C48.3538 6.21146 48.4883 6.31819 48.5967 6.44712C48.7025 6.5762 48.7846 6.72159 48.8393 6.87704C48.8963 7.01379 48.9253 7.15975 48.9247 7.30696L48.9337 13.4807C48.9363 13.5876 48.9851 13.6888 49.0684 13.7601C49.1395 13.8394 49.2423 13.8863 49.3515 13.8891H50.3264V15.7979H48.4844C48.2985 15.795 48.1163 15.7477 47.9543 15.6604C47.7728 15.5666 47.61 15.4429 47.4736 15.2949C47.3261 15.1319 47.2063 14.9476 47.1187 14.7489C47.0264 14.5379 46.979 14.3113 46.9794 14.0825V8.02924C46.9777 7.93269 46.9375 7.8404 46.8671 7.77128C46.8087 7.69608 46.7178 7.65023 46.62 7.6466H46V6.0129H47.6713ZM62.5642 8.35598C62.9097 8.3525 63.2533 8.40632 63.5796 8.51505C63.8839 8.60945 64.163 8.76647 64.3972 8.97506C64.6312 9.19023 64.8163 9.44929 64.9408 9.73603C65.0804 10.0679 65.1492 10.4231 65.143 10.7807V13.7558C65.1451 13.8553 65.1832 13.951 65.2508 14.0267C65.3073 14.1079 65.4006 14.1589 65.5024 14.1642H65.9786V15.7979H64.4062C64.2469 15.795 64.0916 15.7504 63.9569 15.669C63.8137 15.5801 63.6863 15.4698 63.5796 15.3422C63.4667 15.2126 63.3743 15.0677 63.3055 14.9123C63.2397 14.761 63.2046 14.599 63.2022 14.4351V11.417C63.2022 11.2794 63.2022 11.129 63.1797 10.9871C63.1676 10.8236 63.117 10.6648 63.0315 10.5228C62.943 10.3677 62.8106 10.2396 62.6496 10.1531C62.43 10.0423 62.1832 9.9903 61.9353 10.0026C61.5229 9.99176 61.1249 10.1479 60.8391 10.4325C60.521 10.7755 60.3593 11.2259 60.3898 11.6836V14.4265C60.388 14.5877 60.3529 14.747 60.2865 14.8951C60.2149 15.051 60.1195 15.1959 60.0034 15.325C59.893 15.4539 59.7609 15.5643 59.6126 15.6518C59.4774 15.7321 59.3224 15.7766 59.1633 15.7807H57.5954V14.147H58.0447C58.1447 14.1424 58.2379 14.097 58.3008 14.0224C58.3721 13.9534 58.4138 13.8614 58.4176 13.7644L58.431 10.5916C58.4264 10.491 58.3851 10.3951 58.3142 10.3207C58.2568 10.2383 58.1616 10.1871 58.0581 10.1831H57.6089V8.54514H59.4329C59.5458 8.5473 59.6559 8.57848 59.7519 8.63543C59.8565 8.69534 59.9505 8.77081 60.0304 8.85899C60.114 8.94928 60.1837 9.05063 60.2371 9.15993C60.2858 9.26263 60.3118 9.37388 60.3134 9.48667V9.73603C60.3863 9.5962 60.4688 9.46119 60.5605 9.3319C60.6877 9.15968 60.8388 9.00491 61.0098 8.87188C61.2059 8.71635 61.4275 8.59288 61.6657 8.50645C61.9523 8.40124 62.2574 8.35014 62.5642 8.35598ZM94.1203 8.35598C94.1816 8.35228 94.2432 8.35228 94.3045 8.35598V10.2906C94.2164 10.2695 94.1258 10.2594 94.0349 10.2605H93.7474C93.44 10.2527 93.1342 10.3054 92.8489 10.4153C92.6321 10.5116 92.4449 10.6597 92.3053 10.8452C92.175 11.0106 92.0845 11.2014 92.0402 11.4041C91.9919 11.6043 91.9678 11.8092 91.9683 12.0146V15.785H90.023L90.0051 10.5572C90.0039 10.4605 89.9636 10.3681 89.8927 10.2992C89.8293 10.2319 89.7403 10.1916 89.6457 10.1874H89.1694V8.54514H90.6745C90.8162 8.54905 90.9561 8.5767 91.0878 8.62683C91.2279 8.68354 91.3582 8.76037 91.4741 8.85469C91.5876 8.94542 91.6834 9.05457 91.7572 9.17713C91.8294 9.29131 91.8682 9.42199 91.8695 9.55546V9.80052H91.8964C91.9998 9.61995 92.1031 9.44368 92.2199 9.26741C92.3307 9.09737 92.4652 8.9426 92.6198 8.80739C92.7827 8.66852 92.9697 8.55794 93.1724 8.48065C93.4145 8.39206 93.6724 8.34971 93.9316 8.35598C93.9944 8.35176 94.0575 8.35176 94.1203 8.35598ZM84.5196 9.96389C84.2043 9.95297 83.8924 10.0291 83.6211 10.1831C83.3958 10.3178 83.209 10.504 83.0775 10.7248C82.9515 10.9495 82.8636 11.1918 82.8169 11.4428C82.727 11.9292 82.727 12.4268 82.8169 12.9132C82.8621 13.1645 82.9501 13.4071 83.0775 13.6311C83.2042 13.8514 83.3884 14.0365 83.6121 14.1685C83.8852 14.3176 84.1964 14.3906 84.5106 14.3792C84.8247 14.3897 85.1357 14.3168 85.4091 14.1685C85.6343 14.0356 85.8212 13.8509 85.9527 13.6311C86.0767 13.406 86.1631 13.1638 86.2088 12.9132C86.2526 12.6689 86.2751 12.4215 86.2762 12.1737H86.2987C86.2972 11.9287 86.2746 11.6843 86.2313 11.4428C86.1841 11.1925 86.0978 10.9505 85.9752 10.7248C85.6822 10.2255 85.117 9.93004 84.5196 9.96389ZM52.8557 10.325C52.5902 10.6483 52.4335 11.0411 52.4065 11.4514H55.412C55.3953 11.198 55.3282 10.9499 55.2143 10.7206C55.1282 10.5431 55.006 10.3838 54.8549 10.2519C54.7247 10.1391 54.5719 10.0528 54.4057 9.99828C54.2491 9.94925 54.0852 9.92457 53.9205 9.92519C53.5211 9.9006 53.131 10.0471 52.8557 10.325Z" fill="#4D4D4F"/>
<mask id="mask0" mask-type="alpha" maskUnits="userSpaceOnUse" x="39" y="4" width="5" height="6">
<path d="M39.7766 4.54273C40.7749 5.93104 41.4108 7.52809 41.6311 9.20005H43.3798V5.93176L39.7766 4.54273Z" fill="white"/>
</mask>
<g mask="url(#mask0)">
<path d="M39.7766 4.54273C40.7749 5.93104 41.4108 7.52809 41.6311 9.20005H43.3798V5.93176L39.7766 4.54273Z" fill="#D8D8D8"/>
<path fill-rule="evenodd" clip-rule="evenodd" d="M37.9146 5.37418L42.7402 3.22083L45.2488 8.36892L40.4232 10.5223L37.9146 5.37418Z" fill="url(#paint0_linear)"/>
</g>
<mask id="mask1" mask-type="alpha" maskUnits="userSpaceOnUse" x="4" y="2" width="38" height="17">
<path d="M31.4501 16.3674C28.1066 16.0994 25.3709 13.6645 25.3709 10.3276C25.3709 6.99068 28.1202 4.25839 31.3716 4.06229C35.2753 3.82698 37.5191 7.00376 37.5191 10.3276C37.5191 13.4717 36.4365 16.4034 32.2459 16.4034C31.9898 16.4034 31.7199 16.4034 31.4399 16.3674H31.4501ZM7.47473 10.272C7.47473 6.81093 9.94057 3.66356 13.5915 3.92502C17.0068 4.17341 20.3607 7.1541 20.0157 10.5956C19.6742 14.1221 16.9761 16.5864 13.5676 16.5864C10.1592 16.5864 7.47473 13.8999 7.47473 10.272ZM33.8682 2H11.4672C10.9652 2 7.60451 2.09478 5.60656 4.54273L4.13798 5.10815L6.44331 16.6354C8.24658 18.2303 10.8832 19.25 14.4488 18.7337C17.5959 18.2943 20.4998 16.8623 22.7001 14.6646C24.898 16.8683 27.8022 18.3062 30.9515 18.75C32.158 18.9343 33.3879 18.9277 34.5922 18.7304L34.9064 18.6683C37.1722 18.1923 39.1504 16.8806 40.4119 15.0176C41.375 13.6449 41.7302 11.5303 41.638 9.21639C41.5902 8.06595 41.4809 6.154 40.405 4.71268C39.8222 3.96152 39.0535 3.36068 38.168 2.96415C36.8208 2.36782 35.3591 2.04511 33.875 2.01634" fill="white"/>
</mask>
<g mask="url(#mask1)">
<path d="M31.4501 16.3674C28.1066 16.0994 25.3709 13.6645 25.3709 10.3276C25.3709 6.99068 28.1202 4.25839 31.3716 4.06229C35.2753 3.82698 37.5191 7.00376 37.5191 10.3276C37.5191 13.4717 36.4365 16.4034 32.2459 16.4034C31.9898 16.4034 31.7199 16.4034 31.4399 16.3674H31.4501ZM7.47473 10.272C7.47473 6.81093 9.94057 3.66356 13.5915 3.92502C17.0068 4.17341 20.3607 7.1541 20.0157 10.5956C19.6742 14.1221 16.9761 16.5864 13.5676 16.5864C10.1592 16.5864 7.47473 13.8999 7.47473 10.272ZM33.8682 2H11.4672C10.9652 2 7.60451 2.09478 5.60656 4.54273L4.13798 5.10815L6.44331 16.6354C8.24658 18.2303 10.8832 19.25 14.4488 18.7337C17.5959 18.2943 20.4998 16.8623 22.7001 14.6646C24.898 16.8683 27.8022 18.3062 30.9515 18.75C32.158 18.9343 33.3879 18.9277 34.5922 18.7304L34.9064 18.6683C37.1722 18.1923 39.1504 16.8806 40.4119 15.0176C41.375 13.6449 41.7302 11.5303 41.638 9.21639C41.5902 8.06595 41.4809 6.154 40.405 4.71268C39.8222 3.96152 39.0535 3.36068 38.168 2.96415C36.8208 2.36782 35.3591 2.04511 33.875 2.01634" fill="#D8D8D8"/>
<path fill-rule="evenodd" clip-rule="evenodd" d="M0.74353 2.63738L40.3445 -4.77699L45.1263 18.612L5.52537 26.0263L0.74353 2.63738Z" fill="url(#paint1_linear)"/>
</g>
<mask id="mask2" mask-type="alpha" maskUnits="userSpaceOnUse" x="2" y="4" width="4" height="6">
<path d="M2 5.93503V9.20332H3.75546C3.9782 7.5288 4.61899 5.93023 5.62363 4.54273L2 5.93503Z" fill="white"/>
</mask>
<g mask="url(#mask2)">
<path d="M2 5.93503V9.20332H3.75546C3.9782 7.5288 4.61899 5.93023 5.62363 4.54273L2 5.93503Z" fill="#D8D8D8"/>
<path d="M5.60314 4.54273H2V9.20005H5.60314V4.54273Z" fill="url(#paint2_linear)"/>
</g>
<mask id="mask3" mask-type="alpha" maskUnits="userSpaceOnUse" x="21" y="3" width="14" height="8">
<path d="M21.9146 5.76181C23.0383 7.41556 26.013 10.9715 26.013 10.9715C26.013 10.9715 25.2582 8.96473 28.0417 6.08863C30.8251 3.21254 34.4898 4.72576 34.4898 4.72576C33.4652 3.77795 31.2281 3.28771 28.8887 3.28771C25.9174 3.28771 22.7992 4.0819 21.901 5.76181" fill="white"/>
</mask>
<g mask="url(#mask3)">
<path d="M21.9146 5.76181C23.0383 7.41556 26.013 10.9715 26.013 10.9715C26.013 10.9715 25.2582 8.96473 28.0417 6.08863C30.8251 3.21254 34.4898 4.72576 34.4898 4.72576C33.4652 3.77795 31.2281 3.28771 28.8887 3.28771C25.9174 3.28771 22.7992 4.0819 21.901 5.76181" fill="#D8D8D8"/>
<path fill-rule="evenodd" clip-rule="evenodd" d="M21.3508 10.9344L21.9762 2.37606L35.0692 3.2522L34.4438 11.8106L21.3508 10.9344Z" fill="url(#paint3_linear)"/>
</g>
<mask id="mask4" mask-type="alpha" maskUnits="userSpaceOnUse" x="3" y="2" width="18" height="17">
<path d="M11.0061 2.01961C9.32924 2.12746 6.14959 2.71902 5.04986 4.2159C4.04235 5.58859 3.71107 7.50707 3.66667 9.17064C3.60519 11.4813 4.02527 13.6286 4.98839 15.0013C6.69604 17.4525 9.76981 19.4004 14.4488 18.7337C16.6988 18.4099 18.8382 17.5861 20.6954 16.3282C18.4037 17.5996 12.5772 17.2629 10.0123 15.4817C7.75478 13.8901 6.30669 8.25878 9.42828 5.49381C13.7008 1.732 20.3572 4.08517 20.3572 4.08517C18.9331 3.03932 16.2589 2 13.1851 2C12.8094 2 12.4098 2 12 2C11.6824 2 11.3511 2 11.0232 2.02941" fill="white"/>
</mask>
<g mask="url(#mask4)">
<path d="M11.0061 2.01961C9.32924 2.12746 6.14959 2.71902 5.04986 4.2159C4.04235 5.58859 3.71107 7.50707 3.66667 9.17064C3.60519 11.4813 4.02527 13.6286 4.98839 15.0013C6.69604 17.4525 9.76981 19.4004 14.4488 18.7337C16.6988 18.4099 18.8382 17.5861 20.6954 16.3282C18.4037 17.5996 12.5772 17.2629 10.0123 15.4817C7.75478 13.8901 6.30669 8.25878 9.42828 5.49381C13.7008 1.732 20.3572 4.08517 20.3572 4.08517C18.9331 3.03932 16.2589 2 13.1851 2C12.8094 2 12.4098 2 12 2C11.6824 2 11.3511 2 11.0232 2.02941" fill="#D8D8D8"/>
<path fill-rule="evenodd" clip-rule="evenodd" d="M-3.25562 16.4778L6.43216 -4.34475L27.5548 4.65484L17.867 25.4773L-3.25562 16.4778Z" fill="url(#paint4_linear)"/>
</g>
<mask id="mask5" mask-type="alpha" maskUnits="userSpaceOnUse" x="10" y="2" width="31" height="18">
<path d="M10.8286 4.50678C10.8286 4.50678 15.3367 3.11449 18.0212 6.42527C20.7056 9.73605 19.6264 11.9127 22.6455 14.8444C25.1967 17.3316 29.319 19.4854 33.6257 19.1847C38.431 18.8579 40.4563 15.096 40.8217 14.3019C39.2743 15.27 37.5269 15.9077 35.6988 16.1713C34.2014 16.4052 32.6656 16.2413 31.2589 15.6974C26.5014 13.9162 25.3163 8.80785 22.6318 5.67683C21.0096 3.78776 18.7076 2.99356 16.3784 2.99356C14.4199 3.0049 12.5015 3.52571 10.8286 4.50024" fill="white"/>
</mask>
<g mask="url(#mask5)">
<path d="M10.8286 4.50678C10.8286 4.50678 15.3367 3.11449 18.0212 6.42527C20.7056 9.73605 19.6264 11.9127 22.6455 14.8444C25.1967 17.3316 29.319 19.4854 33.6257 19.1847C38.431 18.8579 40.4563 15.096 40.8217 14.3019C39.2743 15.27 37.5269 15.9077 35.6988 16.1713C34.2014 16.4052 32.6656 16.2413 31.2589 15.6974C26.5014 13.9162 25.3163 8.80785 22.6318 5.67683C21.0096 3.78776 18.7076 2.99356 16.3784 2.99356C14.4199 3.0049 12.5015 3.52571 10.8286 4.50024" fill="#D8D8D8"/>
<path d="M41.5014 2.67327H10.1455V19.8122H41.5014V2.67327Z" fill="url(#paint5_linear)"/>
</g>
<mask id="mask6" mask-type="alpha" maskUnits="userSpaceOnUse" x="10" y="3" width="24" height="17">
<path d="M10.6988 4.57541C10.6988 4.57541 15.1387 3.29098 17.0307 7.0822C18.7008 10.3962 18.9911 12.7461 21.8122 15.9066C24.4078 18.75 29.3224 19.5344 33.6291 19.1847C27.444 18.9919 24.4761 15.7562 21.4365 8.79151C19.8415 5.15063 16.8122 3.75181 14.1004 3.75181C12.9067 3.73879 11.7298 4.02259 10.6851 4.57541" fill="white"/>
</mask>
<g mask="url(#mask6)">
<path d="M10.6988 4.57541C10.6988 4.57541 15.1387 3.29098 17.0307 7.0822C18.7008 10.3962 18.9911 12.7461 21.8122 15.9066C24.4078 18.75 29.3224 19.5344 33.6291 19.1847C27.444 18.9919 24.4761 15.7562 21.4365 8.79151C19.8415 5.15063 16.8122 3.75181 14.1004 3.75181C12.9067 3.73879 11.7298 4.02259 10.6851 4.57541" fill="#D8D8D8"/>
<path d="M33.626 3.29098H10.6991V19.5344H33.626V3.29098Z" fill="url(#paint6_linear)"/>
</g>
<defs>
<linearGradient id="paint0_linear" x1="38.7186" y1="8.71786" x2="43.5459" y2="6.37306" gradientUnits="userSpaceOnUse">
<stop stop-color="#A59E35"/>
<stop offset="0.3" stop-color="#A59E35"/>
<stop offset="0.41" stop-color="#B6BB49"/>
<stop offset="0.65" stop-color="#C7DB61"/>
<stop offset="1" stop-color="#C7DB61"/>
</linearGradient>
<linearGradient id="paint1_linear" x1="20.4754" y1="-1.11379" x2="24.7118" y2="21.441" gradientUnits="userSpaceOnUse">
<stop stop-color="#C0CD30"/>
<stop offset="0.33" stop-color="#C2CF2F"/>
<stop offset="0.45" stop-color="#C9D42E"/>
<stop offset="0.53" stop-color="#D4DE2A"/>
<stop offset="0.54" stop-color="#D6DF2A"/>
<stop offset="0.61" stop-color="#D1D82B"/>
<stop offset="0.71" stop-color="#C3C62E"/>
<stop offset="0.83" stop-color="#ACA733"/>
<stop offset="0.87" stop-color="#A59E35"/>
<stop offset="0.88" stop-color="#A59E35"/>
<stop offset="0.93" stop-color="#A59E35"/>
<stop offset="0.94" stop-color="#A59E35"/>
<stop offset="1" stop-color="#A59E35"/>
</linearGradient>
<linearGradient id="paint2_linear" x1="1.90833" y1="7.26917" x2="5.51489" y2="7.26917" gradientUnits="userSpaceOnUse">
<stop stop-color="#6BAD44"/>
<stop offset="0.02" stop-color="#6BAD44"/>
<stop offset="0.23" stop-color="#5DAB46"/>
<stop offset="0.33" stop-color="#46A447"/>
<stop offset="0.78" stop-color="#378E43"/>
<stop offset="1" stop-color="#2A783C"/>
</linearGradient>
<linearGradient id="paint3_linear" x1="28.4758" y1="4.1581" x2="28.0548" y2="10.429" gradientUnits="userSpaceOnUse">
<stop stop-color="#CEB62F"/>
<stop offset="0.06" stop-color="#CFBD2E"/>
<stop offset="0.32" stop-color="#D4D62B"/>
<stop offset="0.47" stop-color="#D6DF2A"/>
<stop offset="0.56" stop-color="#D2DA2A"/>
<stop offset="0.66" stop-color="#C5CB2A"/>
<stop offset="0.78" stop-color="#AFB12B"/>
<stop offset="0.9" stop-color="#928F2B"/>
<stop offset="1" stop-color="#746C2C"/>
</linearGradient>
<linearGradient id="paint4_linear" x1="2.03096" y1="6.71902" x2="23.0811" y2="16.4816" gradientUnits="userSpaceOnUse">
<stop stop-color="#83B240"/>
<stop offset="0.09" stop-color="#78AF43"/>
<stop offset="0.13" stop-color="#6BAD44"/>
<stop offset="0.37" stop-color="#5DAB46"/>
<stop offset="0.48" stop-color="#46A447"/>
<stop offset="0.83" stop-color="#378E43"/>
<stop offset="1" stop-color="#2A783C"/>
</linearGradient>
<linearGradient id="paint5_linear" x1="9.81526" y1="11.2421" x2="40.8682" y2="11.2421" gradientUnits="userSpaceOnUse">
<stop stop-color="#3DAFA5"/>
<stop offset="0.41" stop-color="#3DAFA5"/>
<stop offset="0.57" stop-color="#086F81"/>
<stop offset="0.93" stop-color="#063855"/>
<stop offset="1" stop-color="#012C46"/>
</linearGradient>
<linearGradient id="paint6_linear" x1="11.2851" y1="11.4123" x2="34.2154" y2="11.4123" gradientUnits="userSpaceOnUse">
<stop stop-color="#B9E1DB"/>
<stop offset="0.14" stop-color="#91D3CD"/>
<stop offset="0.36" stop-color="#6EC8C1"/>
<stop offset="0.61" stop-color="#4DAEA7"/>
<stop offset="1" stop-color="#349B93"/>
</linearGradient>
</defs>
</svg>
